# xmcd
#
# Track frame offsets:
#	182
#	14247
#	24930
#	34547
#	46762
#	56640
#	69450
#	82712
#	95822
#	108827
#	127605
#	138752
#	152475
#	164502
#	175772
#	193460
#	207157
#	224417
#	234720
#	247457
#	260557
#	274235
#	286420
#	300455
#
# Disc length: 4135 seconds
#
# Revision: 2
# Processed by: cddbd v1.5.2PL0 Copyright (c) Steve Scherf et al.
# Submitted via: audiograbber 1.83.01
#
DISCID=56102518
DTITLE=Various Artist - Blues Classics [CD5)
DYEAR=1993
DGENRE=Blues
TTITLE0=Bo Diddley - Oh Yeah
TTITLE1=Etta James - In The Basement, Part One
TTITLE2=J. B. Lenoir - Good Looking Woman
TTITLE3=Little Walter - Juke
TTITLE4=Howlin' Wolf - Natchez Burning
TTITLE5=Fontella Bass - Rescue Me
TTITLE6=Muddy Waters - Mannish Boy
TTITLE7=Sonny Boy Williamson - Too Young To Die
TTITLE8=Laura Lee - Dirty Man
TTITLE9=Lighntin' Hopkins - Black Cat Blues
TTITLE10=Lowell Fulson - So Many Years
TTITLE11=Koko Taylor - What Kind Of Man Is This
TTITLE12=John Lee Hooker - Crawlin' King Snake
TTITLE13=Jimmy Rogers - Can't Keep From Worrying
TTITLE14=Buddy Guy - When My Left Eye Jumps
TTITLE15=Sugar Pie DeSanto - I Want To Know
TTITLE16=Memphis Slim - Cow Cow Blues
TTITLE17=Irma Thomas - Security
TTITLE18=Howlin' Wolf - Back Door Man
TTITLE19=Muddy Waters - Louisiana Blues
TTITLE20=Little Milton - I'm Gonna Move To The Outskirts Of Town
TTITLE21=Billy Stewart - Fat Boy
TTITLE22=John Lee Hooker - Worried Life Blues
TTITLE23=Buddy Guy - Baby (Baby, Baby, Baby)
EXTD=
EXTT0=
EXTT1=
EXTT2=
EXTT3=
EXTT4=
EXTT5=
EXTT6=
EXTT7=
EXTT8=
EXTT9=
EXTT10=
EXTT11=
EXTT12=
EXTT13=
EXTT14=
EXTT15=
EXTT16=
EXTT17=
EXTT18=
EXTT19=
EXTT20=
EXTT21=
EXTT22=
EXTT23=
PLAYORDER=
